<?xml version="1.0" encoding="UTF-8"?>
<!DOCTYPE svg PUBLIC "-//W3C//DTD SVG 1.1//EN" "http://www.w3.org/Graphics/SVG/1.1/DTD/svg11.dtd">
<!-- Creator: CorelDRAW 2018 (64 Bit) -->
<svg xmlns="http://www.w3.org/2000/svg" xml:space="preserve" width="100mm" height="100mm" version="1.1" style="shape-rendering:geometricPrecision; text-rendering:geometricPrecision; image-rendering:optimizeQuality; fill-rule:evenodd; clip-rule:evenodd"
viewBox="0 0 10000 10000"
 xmlns:xlink="http://www.w3.org/1999/xlink">
 <defs>
  <style type="text/css">
   <![CDATA[
    .fil0 {fill:white}
   ]]>
  </style>
 </defs>
 <g id="Capa_x0020_1">
  <metadata id="CorelCorpID_0Corel-Layer"/>
  <g id="_1865432112224">
   <path class="fil0" d="M4359.08 7755.48c286.89,0 545.26,174.85 647.13,417.52 16.63,39.6 33.23,91.12 43.69,131.79 143.38,557.42 -466.57,1089.1 -1038.31,769.1 -73.19,-40.97 -88.9,-52.52 -152.82,-116.28 -210.49,-209.97 -267.02,-505.91 -146.95,-784.75l185.79 -247.07 163.04 -106.05c70.07,-33.93 199.16,-64.26 298.43,-64.26zm982.8 -479.63c-35.49,-9.49 -57.34,-38.41 -91.1,-60.99 -134.45,-89.89 -277.56,-158.95 -430.66,-212.81 -133.9,-47.12 -271.15,-65.46 -425.94,-65.46l386.63 -713.08c67.8,-117.27 104.78,-187.73 104.78,-339.77 0,-368.36 -579.85,-578.82 -824.6,-87.48 -9.46,18.99 -9.79,23.04 -18.66,39.83l-114.57 213c-27.29,49.97 -47.82,93.91 -76.64,145.65l-681.61 1283.82c-28.07,52.12 -47.99,99.02 -74.04,148.23 -23.94,-17.53 -52.44,-61.9 -73.51,-90.27 -30.08,-40.52 -40.16,-53.14 -75.62,-88.18 -63.92,-63.16 -105.34,-105.66 -175.68,-163.59 -94.8,-78.08 -323.54,-221.85 -435.7,-231.18 108.42,-161.87 809.81,-740.43 893.27,-896.71 84.89,-158.94 56.23,-360.94 -54.02,-492.24 -54.15,-64.52 -162.93,-131.84 -277.64,-131.84l-2117.71 0c-40.57,0 -123.39,28.16 -155.65,43.26 -261.71,122.52 -308.02,514.8 -73.94,689.33 120.12,89.56 250.41,74.6 393.39,74.6 312,0 624,0 936,0 -13.26,49.67 -64.93,76.82 -100.7,109.88l-492.55 466.79c-40.9,34.19 -78.79,77.85 -117.53,116.46 -287.05,286.05 -119.92,620.02 83.72,705.94 114.31,48.22 125.96,39.85 264.36,39.84 283.73,-0.04 541.51,-5.36 762.36,173.62 513.34,416 -25.58,1471.42 -879.57,1125.1 -53.4,-21.65 -87.66,-43.19 -135.68,-74.9 -152.73,-100.9 -186.28,-202.23 -289.89,-341.87 -210.7,-283.95 -744.23,-132.03 -744.23,252.79 0,157.28 118.94,333.28 190.38,429.65l185.87 200.21c535.26,494.53 1330.85,577.11 1957.02,193.97 126.58,-77.45 251.83,-172.51 344.33,-287.43l114 -143.38c20.32,-31.77 25.14,-55.3 63.22,-65.47 31.34,117.36 242.37,312.98 342.81,394.24 400.14,323.66 935.33,406.05 1428.23,253.51 321.26,-99.43 609.94,-334.75 789.05,-614.88 29.37,-45.95 83.24,-130.88 95.83,-184.95l225.13 254.54c34.31,34.69 54.94,44.97 87.95,75.85 147.05,137.61 312.09,234.63 487.37,331.59 307.62,170.18 686.06,227.1 1036.47,227.1 361.44,0 635.9,-95.56 896.11,-203.66l131.18 -67.72c14.95,-8.07 27.18,-15.83 44.1,-26.1l250.68 -170.5c35.28,-25.19 45.7,-27.91 79.08,-61.3 31.5,-31.5 44.79,-37.11 75.9,-64.5 321.65,-283.22 570.81,-708.99 661.27,-1140.36 80.12,-382.01 80.78,-776.63 -39.58,-1148.08 -24.33,-75.06 -155.45,-454.77 -238.43,-510.31 -83.96,174.95 -64.72,209.79 -225.12,371.52 -164.95,166.32 -281.76,159.08 -394.98,213.39 17.81,76.43 62.61,170.18 79.16,248.41 68.38,323.51 34.39,617.89 -94.21,918.08 -34.94,81.57 -71.87,151.27 -121.93,217.35 -26.48,34.95 -47.6,67.92 -76.56,98.92 -31,33.19 -49.5,60.52 -83.34,92.16 -183.53,171.55 -421.05,310.58 -674.82,366.44 -262.46,57.77 -560.37,40.07 -809.95,-54.67 -508.43,-193.02 -897.67,-694.52 -897.67,-1254.97 0,-254.58 34.67,-468.48 140.34,-678.57 83.89,-166.79 194.88,-306.36 329.44,-431 89.59,-82.99 193.82,-144.11 299.75,-203.33 25.19,-14.08 37.41,-21.49 62.66,-30.92 238.74,-89.21 454.18,-132.8 734.74,-105.81 180.79,17.39 78.36,56.69 141,-188.43 13.64,-53.31 30.02,-96.31 53,-145.88 9.79,-21.12 20.53,-47.24 29.88,-63.72l123.24 -157.53c34.38,-34.19 62.21,-61.61 98.08,-89.11 34.47,-26.43 92.84,-48.25 117.28,-81.6 -210.54,-49.05 -225.87,-74.35 -487.93,-108.76 -196.67,-25.82 -361.41,-13.86 -564.15,4.4 -293.02,26.39 -648.08,167.64 -880.81,324.24 -126.95,85.44 -227.25,155.87 -334,262.68l-218.58 237.68c-116.12,147.72 -208.17,295.85 -287.65,472.79 -67.22,149.67 -110.45,278.57 -151.91,456.45z"/>
   <path class="fil0" d="M3036.97 1707.41c155.93,36.32 184.63,22.41 375.98,92.02 113.53,41.3 227.08,82.85 333.81,134.16l545.87 273.1 1035.17 626.14c27.22,17.02 48.65,24.9 74.33,42.67 238.91,165.28 739.37,462.98 1013.89,635.72l1167.53 727.79c527.52,346.78 952.47,-123.28 952.47,-402.49 0,-329.11 -49.01,-365.65 -278.07,-622.75l-1017.81 -1193.33c-105.83,-113.08 -297.41,-364.61 -403.7,-473.76l-870.95 -1024.31c-21.52,-25.45 -22.26,-32.31 -47.13,-58.16 -128.17,-133.13 -274.54,-255.03 -439.78,-344.09 -213.83,-115.26 -372.69,-97.28 -604.7,-97.28 -288.32,0 -667.47,280.79 -825.77,484.55l-300.36 354.8c-24.7,25.93 -25.76,32.36 -47.38,57.92l-663.4 787.3z"/>
   <path class="fil0" d="M1469.16 3672.74c0,222.59 -8.42,343.8 184,529.62 85.32,82.39 251.39,160.58 412.71,160.58 225.89,0 530.21,-237.78 730.47,-357.57 392.61,-234.87 798.21,-499.51 1187.67,-731.05 57.42,-34.15 115.16,-69.01 173.88,-106.9 145.56,-93.96 559.29,-370.73 715.99,-383.76l-659.08 -405.55c-80.38,-42.87 -148.98,-81.11 -228.47,-122.54l-471.27 -218.99c-93.12,-35.3 -555.23,-217.43 -670.14,-111.75l-586.86 688.34c-23.06,29.46 -24.76,30.55 -48.85,56.46l-614.06 719.63c-46.87,53.08 -125.99,190.95 -125.99,283.48z"/>
   <path class="fil0" d="M8126.52 6363.37c0,63.99 26.86,166.5 46.62,210.73 28.98,64.86 60.19,102.3 106.61,150.79l30.11 28.38c18.31,16.1 20.82,18.67 38.68,31.5 331.28,237.93 807.59,-4.13 807.59,-421.4 0,-432.81 -540.63,-694.09 -874.8,-359.94 -92.44,92.44 -154.81,228.91 -154.81,359.94z"/>
  </g>
 </g>
</svg>
